<?xml version="1.0" encoding="utf-8"?>
<!-- Generator: Adobe Illustrator 24.1.1, SVG Export Plug-In . SVG Version: 6.00 Build 0)  -->
<svg version="1.1" id="Layer_1" xmlns="http://www.w3.org/2000/svg" xmlns:xlink="http://www.w3.org/1999/xlink" x="0px" y="0px"
	 viewBox="0 0 116 116" style="enable-background:new 0 0 116 116;" xml:space="preserve">
<style type="text/css">
	.st0{fill:url(#SVGID_1_);}
	.st1{fill-rule:evenodd;clip-rule:evenodd;fill:url(#SVGID_2_);}
</style>
<g>
	
		<linearGradient id="SVGID_1_" gradientUnits="userSpaceOnUse" x1="34.0772" y1="133.1201" x2="75.1412" y2="7.608" gradientTransform="matrix(1 0 0 -1 0 118)">
		<stop  offset="0" style="stop-color:#FFD500"/>
		<stop  offset="1" style="stop-color:#FF6B00"/>
	</linearGradient>
	<path class="st0" d="M58,116c32,0,58-26,58-58c0-32-26-58-58-58C26,0,0,26,0,58C0,90,26,116,58,116z"/>
	
		<linearGradient id="SVGID_2_" gradientUnits="userSpaceOnUse" x1="28.5696" y1="48.3862" x2="85.175" y2="73.7308" gradientTransform="matrix(1 0 0 -1 0 118)">
		<stop  offset="0" style="stop-color:#191433"/>
		<stop  offset="1" style="stop-color:#5B1D65"/>
	</linearGradient>
	<path class="st1" d="M59.6,23.3c1.5,0,2.8,1.2,2.8,2.8v8.1h5.4c7.6,0,13.7,6.8,13.7,13.7c0,3.6-1.4,6.8-3.6,9.3
		c5.2,2.1,9,6.7,9,12.5c0,7.9-7.2,13.7-15.2,13.7h-9.3v8.1c0,1.5-1.2,2.8-2.8,2.8c-1.5,0-2.8-1.2-2.8-2.8v-8.1h-8v8.1
		c0,1.5-1.2,2.8-2.8,2.8c-1.5,0-2.8-1.2-2.8-2.8v-8.1h-2.6c-0.2,0-0.4,0-0.6-0.1h-8.1c-1.5,0-2.8-1.2-2.8-2.8s1.2-2.8,2.8-2.8h5.9
		V58.8v-0.1v-19h-5.9c-1.5,0-2.8-1.2-2.8-2.8c0-1.5,1.2-2.8,2.8-2.8h8.7h2.6v-8.1c0-1.5,1.2-2.8,2.8-2.8c1.5,0,2.8,1.2,2.8,2.8v8.1
		h2.1h5.9v-8.1C56.8,24.6,58.1,23.3,59.6,23.3z M46,77.7h-2.6V61.6h24.4c0.5,0,0.9,0,1.4-0.1h2.5c5.7,0,9.7,4,9.7,8.1
		c0,4.2-4,8.1-9.7,8.1H60.2c-0.2,0-0.4-0.1-0.6-0.1c-0.2,0-0.4,0-0.6,0.1h-7.5c-0.2,0-0.4-0.1-0.6-0.1H46z M43.4,56V39.8h7.5h16.9
		c4.4,0,8.1,4.1,8.1,8.1c0,4.1-3.1,7.5-7.1,8.1H43.4z"/>
</g>
</svg>
