<?xml version="1.0" encoding="utf-8"?>
<!-- Generator: Adobe Illustrator 24.1.1, SVG Export Plug-In . SVG Version: 6.00 Build 0)  -->
<svg version="1.1" id="Layer_1" xmlns="http://www.w3.org/2000/svg" xmlns:xlink="http://www.w3.org/1999/xlink" x="0px" y="0px"
	 viewBox="0 0 116 116" style="enable-background:new 0 0 116 116;" xml:space="preserve">
<style type="text/css">
	.st0{fill:url(#SVGID_1_);}
	.st1{fill:url(#SVGID_2_);}
	.st2{fill:url(#SVGID_3_);}
	.st3{fill:url(#SVGID_4_);}
</style>
<g>
	<g>
		
			<linearGradient id="SVGID_1_" gradientUnits="userSpaceOnUse" x1="-535.3914" y1="48.4416" x2="-430.5767" y2="106.0266" gradientTransform="matrix(6.123234e-17 -1 -1 -6.123234e-17 135.5 -424.5)">
			<stop  offset="0" style="stop-color:#191433"/>
			<stop  offset="1" style="stop-color:#5B1D65"/>
		</linearGradient>
		<path class="st0" d="M0,58L0,58C0,26,26,0,58,0l0,0c32,0,58,26,58,58l0,0c0,32-26,58-58,58l0,0C26,116,0,90,0,58z"/>
	</g>
	
		<linearGradient id="SVGID_2_" gradientUnits="userSpaceOnUse" x1="54.4303" y1="102.1244" x2="58.7514" y2="69.1134" gradientTransform="matrix(1 0 0 -1 0 117)">
		<stop  offset="0" style="stop-color:#45E64B"/>
		<stop  offset="1" style="stop-color:#03FFD2"/>
	</linearGradient>
	<path class="st1" d="M36.8,45.9l20-8.8c0.8-0.4,1.7-0.4,2.9,0l20,8.8c1.7,0.8,3.3-1.3,2.1-2.9L60.9,17.6c-1.3-1.7-3.8-1.7-5,0
		L35.1,43C33.4,44.7,35.1,46.8,36.8,45.9z"/>
	
		<linearGradient id="SVGID_3_" gradientUnits="userSpaceOnUse" x1="57.8141" y1="49.0073" x2="62.1352" y2="15.9959" gradientTransform="matrix(1 0 0 -1 0 117)">
		<stop  offset="0" style="stop-color:#45E64B"/>
		<stop  offset="1" style="stop-color:#03FFD2"/>
	</linearGradient>
	<path class="st2" d="M36.8,70.1l20,8.8c0.8,0.4,1.7,0.4,2.9,0l20-8.8c1.7-0.8,3.3,1.3,2.1,2.9L60.9,98.4c-1.3,1.7-3.8,1.7-5,0
		L35.1,73C33.4,71.3,35.1,69.2,36.8,70.1z"/>
	
		<linearGradient id="SVGID_4_" gradientUnits="userSpaceOnUse" x1="56.7259" y1="71.1283" x2="59.2651" y2="46.9604" gradientTransform="matrix(1 0 0 -1 0 117)">
		<stop  offset="0" style="stop-color:#45E64B"/>
		<stop  offset="1" style="stop-color:#03FFD2"/>
	</linearGradient>
	<path class="st3" d="M58,47.2L36.3,58L58,68.8L79.7,58L58,47.2z"/>
</g>
</svg>
