<svg width="80" height="80" viewBox="0 0 80 80" fill="none" xmlns="http://www.w3.org/2000/svg">
<mask id="path-1-inside-1_242_4352" fill="white">
<path fill-rule="evenodd" clip-rule="evenodd" d="M70.7252 34.5727L65.4231 39.3221C64.9719 38.8184 64.2611 38.1842 63.2066 37.488L68.7161 29.1426C69.4555 29.6307 70.1462 30.1383 70.7847 30.6635C70.9269 31.2658 71 31.8786 71 32.5C71 33.2028 70.9064 33.8947 70.7252 34.5727ZM9.27477 34.5727L14.5769 39.3221C15.0281 38.8184 15.7389 38.1842 16.7934 37.488L11.2839 29.1426C10.5445 29.6307 9.85381 30.1383 9.21533 30.6635C9.07313 31.2658 9 31.8786 9 32.5C9 33.2028 9.09355 33.8947 9.27477 34.5727ZM59.8623 35.6874L63.9291 26.5517C62.3458 25.8469 60.6371 25.2109 58.822 24.6532L55.8849 34.2121C57.3472 34.6614 58.6759 35.1593 59.8623 35.6874ZM51.5514 33.1168L53.542 23.3169C51.8113 22.9654 50.0135 22.6792 48.1609 22.4645L47.0097 32.398C48.5886 32.581 50.1061 32.8232 51.5514 33.1168ZM40 22C40.9176 22 41.8271 22.0172 42.7274 22.0509L42.3531 32.0439C41.5776 32.0148 40.7929 32 40 32C39.2071 32 38.4224 32.0148 37.6469 32.0439L37.2726 22.0509C38.1729 22.0172 39.0825 22 40 22ZM32.9903 32.398L31.8391 22.4645C29.9865 22.6792 28.1887 22.9654 26.458 23.3169L28.4486 33.1168C29.8939 32.8232 31.4114 32.581 32.9903 32.398ZM24.1151 34.2121L21.178 24.6532C19.3629 25.2109 17.6542 25.8469 16.0709 26.5517L20.1377 35.6874C21.3241 35.1593 22.6529 34.6614 24.1151 34.2121Z"/>
</mask>
<path d="M70.7252 34.5727L71.3924 35.3176L71.6144 35.1188L71.6913 34.8309L70.7252 34.5727ZM65.4231 39.3221L64.6782 39.9894L65.3455 40.7342L66.0903 40.067L65.4231 39.3221ZM63.2066 37.488L62.3721 36.9371L61.8211 37.7716L62.6557 38.3226L63.2066 37.488ZM68.7161 29.1426L69.267 28.3081L68.4325 27.7571L67.8816 28.5917L68.7161 29.1426ZM70.7847 30.6635L71.7579 30.4337L71.6804 30.1054L71.4199 29.8912L70.7847 30.6635ZM14.5769 39.3221L13.9097 40.067L14.6545 40.7342L15.3218 39.9894L14.5769 39.3221ZM9.27477 34.5727L8.30868 34.8309L8.38562 35.1188L8.60755 35.3176L9.27477 34.5727ZM16.7934 37.488L17.3443 38.3226L18.1789 37.7716L17.6279 36.9371L16.7934 37.488ZM11.2839 29.1426L12.1184 28.5917L11.5675 27.7571L10.733 28.3081L11.2839 29.1426ZM9.21533 30.6635L8.58008 29.8912L8.31959 30.1054L8.24209 30.4337L9.21533 30.6635ZM63.9291 26.5517L64.8426 26.9584L65.2493 26.0448L64.3358 25.6381L63.9291 26.5517ZM59.8623 35.6874L59.4556 36.601L60.3692 37.0077L60.7759 36.0941L59.8623 35.6874ZM58.822 24.6532L59.1158 23.6973L58.1599 23.4036L57.8661 24.3595L58.822 24.6532ZM55.8849 34.2121L54.929 33.9184L54.6353 34.8743L55.5912 35.168L55.8849 34.2121ZM53.542 23.3169L54.522 23.516L54.7211 22.536L53.7411 22.3369L53.542 23.3169ZM51.5514 33.1168L51.3523 34.0968L52.3323 34.2958L52.5313 33.3159L51.5514 33.1168ZM48.1609 22.4645L48.276 21.4711L47.2826 21.356L47.1675 22.3494L48.1609 22.4645ZM47.0097 32.398L46.0164 32.2829L45.9012 33.2762L46.8946 33.3914L47.0097 32.398ZM42.7274 22.0509L43.7267 22.0883L43.7641 21.089L42.7648 21.0516L42.7274 22.0509ZM42.3531 32.0439L42.3157 33.0432L43.315 33.0806L43.3524 32.0813L42.3531 32.0439ZM37.6469 32.0439L36.6476 32.0813L36.685 33.0806L37.6843 33.0432L37.6469 32.0439ZM37.2726 22.0509L37.2352 21.0516L36.2359 21.089L36.2733 22.0883L37.2726 22.0509ZM31.8391 22.4645L32.8325 22.3494L32.7174 21.356L31.724 21.4711L31.8391 22.4645ZM32.9903 32.398L33.1054 33.3914L34.0988 33.2762L33.9836 32.2829L32.9903 32.398ZM26.458 23.3169L26.2589 22.3369L25.2789 22.536L25.478 23.516L26.458 23.3169ZM28.4486 33.1168L27.4687 33.3159L27.6677 34.2958L28.6477 34.0968L28.4486 33.1168ZM21.178 24.6532L22.1339 24.3595L21.8401 23.4036L20.8843 23.6973L21.178 24.6532ZM24.1151 34.2121L24.4088 35.168L25.3647 34.8743L25.071 33.9184L24.1151 34.2121ZM16.0709 26.5517L15.6642 25.6381L14.7507 26.0448L15.1574 26.9584L16.0709 26.5517ZM20.1377 35.6874L19.2241 36.0941L19.6308 37.0077L20.5444 36.601L20.1377 35.6874ZM70.058 33.8279L64.7559 38.5773L66.0903 40.067L71.3924 35.3176L70.058 33.8279ZM66.168 38.6549C65.6498 38.0765 64.8703 37.3881 63.7576 36.6535L62.6557 38.3226C63.652 38.9803 64.294 39.5604 64.6782 39.9894L66.168 38.6549ZM64.0412 38.039L69.5506 29.6936L67.8816 28.5917L62.3721 36.9371L64.0412 38.039ZM68.1652 29.9772C68.8776 30.4475 69.54 30.9345 70.1494 31.4358L71.4199 29.8912C70.7524 29.3421 70.0333 28.814 69.267 28.3081L68.1652 29.9772ZM69.8114 30.8933C69.9363 31.4219 70 31.9577 70 32.5L72 32.5C72 31.7995 71.9175 31.1096 71.7579 30.4337L69.8114 30.8933ZM70 32.5C70 33.1131 69.9185 33.7183 69.7591 34.3145L71.6913 34.8309C71.8944 34.0711 72 33.2925 72 32.5L70 32.5ZM15.2441 38.5773L9.94199 33.8279L8.60755 35.3176L13.9097 40.067L15.2441 38.5773ZM16.2424 36.6535C15.1297 37.3881 14.3502 38.0765 13.832 38.6549L15.3218 39.9894C15.706 39.5604 16.348 38.9803 17.3443 38.3226L16.2424 36.6535ZM10.4494 29.6936L15.9588 38.039L17.6279 36.9371L12.1184 28.5917L10.4494 29.6936ZM9.85059 31.4358C10.46 30.9345 11.1224 30.4475 11.8348 29.9772L10.733 28.3081C9.9667 28.814 9.24759 29.3421 8.58008 29.8912L9.85059 31.4358ZM10 32.5C10 31.9577 10.0638 31.4219 10.1886 30.8933L8.24209 30.4337C8.08252 31.1096 8 31.7995 8 32.5L10 32.5ZM10.2409 34.3145C10.0815 33.7183 10 33.1131 10 32.5L8 32.5C8 33.2925 8.1056 34.0711 8.30868 34.8309L10.2409 34.3145ZM63.0155 26.145L58.9487 35.2807L60.7759 36.0941L64.8426 26.9584L63.0155 26.145ZM58.5283 25.6091C60.3081 26.156 61.9788 26.7781 63.5224 27.4653L64.3358 25.6381C62.7127 24.9156 60.9661 24.2659 59.1158 23.6973L58.5283 25.6091ZM56.8408 34.5058L59.7779 24.9469L57.8661 24.3595L54.929 33.9184L56.8408 34.5058ZM60.269 34.7738C59.0429 34.2281 57.6762 33.7164 56.1786 33.2562L55.5912 35.168C57.0181 35.6065 58.3089 36.0905 59.4556 36.601L60.269 34.7738ZM52.562 23.1179L50.5714 32.9177L52.5313 33.3159L54.522 23.516L52.562 23.1179ZM48.0457 23.4578C49.871 23.6693 51.6408 23.9511 53.343 24.2969L53.7411 22.3369C51.9818 21.9796 50.156 21.689 48.276 21.4711L48.0457 23.4578ZM48.0031 32.5131L49.1542 22.5796L47.1675 22.3494L46.0164 32.2829L48.0031 32.5131ZM51.7504 32.1368C50.2766 31.8374 48.7311 31.5908 47.1248 31.4046L46.8946 33.3914C48.4461 33.5711 49.9356 33.809 51.3523 34.0968L51.7504 32.1368ZM42.7648 21.0516C41.852 21.0174 40.93 21 40 21L40 23C40.9051 23 41.8021 23.0169 42.69 23.0502L42.7648 21.0516ZM43.3524 32.0813L43.7267 22.0883L41.7281 22.0135L41.3538 32.0064L43.3524 32.0813ZM40 33C40.7804 33 41.5527 33.0146 42.3157 33.0432L42.3905 31.0446C41.6026 31.0151 40.8054 31 40 31L40 33ZM37.6843 33.0432C38.4473 33.0146 39.2196 33 40 33L40 31C39.1946 31 38.3974 31.0151 37.6095 31.0446L37.6843 33.0432ZM36.2733 22.0883L36.6476 32.0813L38.6462 32.0064L38.2719 22.0135L36.2733 22.0883ZM40 21C39.07 21 38.148 21.0174 37.2352 21.0516L37.31 23.0502C38.1979 23.0169 39.0949 23 40 23L40 21ZM30.8458 22.5796L31.9969 32.5131L33.9836 32.2829L32.8325 22.3494L30.8458 22.5796ZM26.657 24.2969C28.3592 23.9511 30.129 23.6693 31.9543 23.4578L31.724 21.4711C29.844 21.689 28.0182 21.9796 26.2589 22.3369L26.657 24.2969ZM29.4286 32.9177L27.438 23.1179L25.478 23.516L27.4687 33.3159L29.4286 32.9177ZM32.8752 31.4046C31.2689 31.5908 29.7234 31.8374 28.2496 32.1368L28.6477 34.0968C30.0644 33.809 31.5539 33.5711 33.1054 33.3914L32.8752 31.4046ZM20.2221 24.9469L23.1592 34.5058L25.071 33.9184L22.1339 24.3595L20.2221 24.9469ZM16.4776 27.4653C18.0212 26.7781 19.6919 26.156 21.4717 25.6091L20.8843 23.6973C19.0339 24.2659 17.2873 24.9156 15.6642 25.6381L16.4776 27.4653ZM21.0513 35.2807L16.9845 26.145L15.1574 26.9584L19.2241 36.0941L21.0513 35.2807ZM23.8214 33.2562C22.3239 33.7164 20.9571 34.2281 19.731 34.7738L20.5444 36.601C21.6911 36.0905 22.9818 35.6065 24.4088 35.168L23.8214 33.2562Z" fill="#191433" mask="url(#path-1-inside-1_242_4352)"/>
<path fill-rule="evenodd" clip-rule="evenodd" d="M4 40.0001C4 49.9412 20.1177 58.0001 40 58.0001C59.8823 58.0001 76 49.9412 76 40.0001C76 36.5816 74.0941 33.3857 70.7847 30.6636C70.9269 31.2659 71 31.8787 71 32.5001C71 41.0605 57.1208 48.0001 40 48.0001C22.8792 48.0001 9 41.0605 9 32.5001C9 31.8787 9.07314 31.2658 9.21533 30.6636C5.90588 33.3857 4 36.5816 4 40.0001Z" fill="#191433"/>
</svg>
